<svg width="77" height="82" viewBox="0 0 77 82" fill="none" xmlns="http://www.w3.org/2000/svg">
<path d="M76.0352 20.0736C72.7891 14.1752 64.8122 13.2572 61.5042 21.0072C59.2737 26.2377 63.68 34.7372 56.5237 34.0932C48.3675 33.3589 52.8675 21.2022 52.6253 15.9722C52.4261 11.9839 50.8128 8.19883 48.0784 5.29223C45.344 2.38563 41.6643 0.546131 37.6994 0.104731C33.7306 -0.340579 29.7385 0.643792 26.4294 2.87423C16.1404 10.214 19.1716 22.5302 23.9567 27.8742C25.0231 29.0656 26.6715 30.4914 26.6247 32.5617C26.5817 34.5656 25.1091 38.6867 20.3435 36.1437C17.2341 34.4835 17.0544 31.6789 14.4607 29.5265C8.9998 24.9992 1.9017 27.4249 0.0507039 34.5617H0.0467976C-0.105542 35.1828 0.121017 35.839 0.624918 36.2336C1.12883 36.6321 1.81632 36.6985 2.38662 36.4055C4.41392 35.3625 5.82022 34.0696 7.35142 34.2571C8.83192 34.4368 9.26552 35.7454 11.2264 38.4876C13.1522 41.1829 14.5545 43.261 17.8983 44.2806C7.63632 47.7767 2.05432 48.1712 1.75332 56.7146C1.46816 60.1716 3.01892 63.5271 5.84312 65.5427C6.38218 65.8943 7.08142 65.8982 7.62432 65.5505C8.16729 65.2029 8.45635 64.5661 8.3626 63.9294C7.91338 61.0856 7.96026 57.7497 9.24151 56.3903C10.3509 55.2184 11.8743 54.6481 15.8977 53.9176C19.9602 53.1754 23.3625 53.3356 27.1437 48.7731C22.9523 57.1872 16.8237 60.7531 16.4837 67.1011C16.0189 75.73 23.7142 83.4721 30.5107 78.1751V78.1712C30.9287 77.8626 31.1005 77.3235 30.9443 76.8274C30.788 76.3313 30.331 75.9876 29.8115 75.9797C28.8623 75.9993 27.917 75.8352 27.0303 75.4993C22.4405 73.4485 23.5576 67.9798 28.0537 63.3433C32.5381 58.7183 36.8349 58.1089 38.0146 49.8203C39.7373 63.9293 34.2568 68.4723 41.3818 76.5313L41.3857 76.5235C43.6904 79.0704 46.8232 80.7149 50.2295 81.1719C50.9365 81.2773 51.6397 80.9258 51.9834 80.2969C52.3272 79.668 52.2412 78.8907 51.7686 78.3477C48.8038 75.1211 47.0186 70.9844 46.7061 66.6137C46.6709 62.0707 50.2647 58.9067 48.1709 49.0357C51.8623 51.8677 59.7409 59.6407 58.9599 64.2697H58.9638C58.495 66.7424 56.8583 68.84 54.5693 69.8947C54.2138 70.0548 53.9755 70.3947 53.9482 70.7853C53.9208 71.1759 54.1083 71.547 54.4365 71.7579C56.0693 72.9259 58.1045 73.3946 60.0849 73.0587C67.4208 71.4767 72.9949 54.3047 56.2763 43.0787C62.0107 45.3756 68.7763 41.4068 69.7533 32.7737C70.097 29.7229 67.1674 23.9846 69.8001 21.5937C70.7533 20.7305 72.5228 21.1133 74.2571 21.918H74.261C74.7845 22.168 75.4094 22.0547 75.8118 21.6328C76.2142 21.2148 76.3047 20.5853 76.0352 20.0736ZM31.8322 26.8002C30.883 26.8002 30.0314 26.2299 29.6681 25.3549C29.3048 24.4799 29.504 23.4682 30.1759 22.8002C30.8439 22.1284 31.8556 21.9292 32.7306 22.2924C33.6056 22.6557 34.1759 23.5072 34.1759 24.4565C34.1759 25.7495 33.1252 26.8002 31.8322 26.8002ZM43.7462 24.9135C42.797 24.9135 41.9454 24.3432 41.5821 23.4643C41.2188 22.5893 41.418 21.5815 42.0899 20.9135C42.7579 20.2417 43.7696 20.0425 44.6446 20.4018C45.5196 20.7651 46.0899 21.6206 46.0899 22.5698C46.0899 23.1909 45.8438 23.7886 45.4024 24.226C44.9649 24.6674 44.3672 24.9135 43.7462 24.9135Z" fill="black"/>
</svg>
